:FULLY-SPECIFIED
:FORCE-ALL-JOINTS-BE-3DOF
:DEGREES
510
root -4.38423 14.8355 -41.4329 366.061 27.0713 355.791
lfemur -50.9643 29.2416 -30.0984
ltibia 71.0412 0 0
lfoot -27.6297 31.2695 0
ltoes 6.73718 0 0
rfemur -23.7281 -3.89838 14.5555
rtibia 75.7889 0 0
rfoot -6.64062 -21.1095 0
rtoes 14.7708 0 0
lowerback 16.0435 -1.25908 -6.50412
upperback -0.781509 -2.50071 4.24953
thorax -9.41487 -0.746724 8.99917
lowerneck 6.8959 -16.4175 -16.7973
upperneck -1.49075 -23.3837 21.6086
head 3.13181 -12.0678 8.17559
lclavicle 1.0891e-14 1.52156e-15 0
lhumerus 1.66824 -63.3076 91.8991
lradius 82.3342 0 0
lwrist 26.4973 0 0
lhand -5.1809 41.8578 0
lfingers 7.12502 0 0
lthumb 20.6183 70.7649 0
rclavicle 1.0891e-14 1.52156e-15 0
rhumerus 66.861 29.4014 -20.9694
rradius 109.245 0 0
rwrist -28.7909 0 0
rhand 7.73436 -18.1629 0
rfingers 7.12502 0 0
rthumb 32.9393 -44.7912 0
511
root -4.46881 14.8209 -41.4672 364.9 26.4564 355.014
lfemur -50.2661 28.8191 -29.7311
ltibia 70.8821 0 0
lfoot -27.5317 31.1712 0
ltoes 6.26051 0 0
rfemur -24.1513 -4.0918 14.443
rtibia 75.5981 0 0
rfoot -6.5878 -20.6697 0
rtoes 14.5807 0 0
lowerback 16.0494 -1.20929 -6.51732
upperback -0.763668 -2.44163 4.20676
thorax -9.40915 -0.719883 8.9449
lowerneck 6.80225 -16.3569 -16.7435
upperneck -1.39472 -23.2892 21.4676
head 3.13879 -12.0155 8.12802
lclavicle 1.12292e-14 1.45337e-15 0
lhumerus 0.682782 -62.7382 92.0226
lradius 82.63 0 0
lwrist 27.0598 0 0
lhand -5.26337 41.9559 0
lfingers 7.12502 0 0
lthumb 20.5389 70.8702 0
rclavicle 1.12292e-14 1.45337e-15 0
rhumerus 66.1525 29.0048 -21.4101
rradius 108.402 0 0
rwrist -28.5895 0 0
rhand 7.36063 -18.3331 0
rfingers 7.12502 0 0
rthumb 32.5808 -45.004 0
512
root -4.55338 14.8063 -41.5014 363.673 25.7045 354.231
lfemur -49.4802 28.357 -29.3191
ltibia 70.6972 0 0
lfoot -27.4209 31.0607 0
ltoes 5.72745 0 0
rfemur -24.6232 -4.31611 14.3186
rtibia 75.3898 0 0
rfoot -6.53144 -20.1764 0
rtoes 14.375 0 0
lowerback 16.0569 -1.15362 -6.53306
upperback -0.743559 -2.37593 4.15823
thorax -9.40301 -0.690041 8.8841
lowerneck 6.69511 -16.2881 -16.6838
upperneck -1.28324 -23.1824 21.308
head 3.14794 -11.9563 8.07418
lclavicle 1.15846e-14 1.37628e-15 0
lhumerus -0.424897 -62.0889 92.159
lradius 82.9621 0 0
lwrist 27.7032 0 0
lhand -5.35823 42.0701 0
lfingers 7.12502 0 0
lthumb 20.4476 70.9926 0
rclavicle 1.15846e-14 1.37628e-15 0
rhumerus 65.349 28.5622 -21.91
rradius 107.455 0 0
rwrist -28.3493 0 0
rhand 6.93368 -18.5133 0
rfingers 7.12502 0 0
rthumb 32.1713 -45.2322 0
513
root -4.63795 14.7917 -41.5356 362.393 24.794 353.46
lfemur -48.6002 27.855 -28.8593
ltibia 70.4833 0 0
lfoot -27.2964 30.9371 0
ltoes 5.13478 0 0
rfemur -25.1465 -4.57481 14.1819
rtibia 75.1642 0 0
rfoot -6.47192 -19.6262 0
rtoes 14.1543 0 0
lowerback 16.0662 -1.09175 -6.55169
upperback -0.721016 -2.30332 4.10347
thorax -9.39647 -0.657067 8.81634
lowerneck 6.57317 -16.2106 -16.6182
upperneck -1.15453 -23.0622 21.1284
head 3.15967 -11.8897 8.01356
lclavicle 1.19533e-14 1.28958e-15 0
lhumerus -1.66299 -61.3526 92.3089
lradius 83.333 0 0
lwrist 28.4354 0 0
lhand -5.46678 42.2021 0
lfingers 7.12502 0 0
lthumb 20.3432 71.134 0
rclavicle 1.19533e-14 1.28958e-15 0
rhumerus 64.4428 28.071 -22.4741
rradius 106.397 0 0
rwrist -28.065 0 0
rhand 6.44851 -18.7018 0
rfingers 7.12502 0 0
rthumb 31.7059 -45.4746 0
514
root -4.72253 14.7772 -41.5698 361.072 23.7031 352.719
lfemur -47.62 27.3133 -28.349
ltibia 70.2375 0 0
lfoot -27.1571 30.7996 0
ltoes 4.4793 0 0
rfemur -25.7236 -4.8714 14.0325
rtibia 74.9213 0 0
rfoot -6.40965 -19.016 0
rtoes 13.9193 0 0
lowerback 16.0776 -1.02334 -6.57357
upperback -0.695878 -2.22351 4.04199
thorax -9.38956 -0.620826 8.74125
lowerneck 6.43515 -16.1236 -16.5463
upperneck -1.00683 -22.9276 20.9273
head 3.1744 -11.8152 7.94567
lclavicle 1.23313e-14 1.19258e-15 0
lhumerus -3.03969 -60.5218 92.4725
lradius 83.7449 0 0
lwrist 29.2639 0 0
lhand -5.5903 42.354 0
lfingers 7.12502 0 0
lthumb 20.2243 71.2966 0
rclavicle 1.23313e-14 1.19258e-15 0
rhumerus 63.4259 27.529 -23.1072
rradius 105.221 0 0
rwrist -27.7311 0 0
rhand 5.90014 -18.897 0
rfingers 7.12502 0 0
rthumb 31.1798 -45.73 0
515
root -4.8071 14.7626 -41.604 359.722 22.41 352.025
lfemur -46.5336 26.7317 -27.7853
ltibia 69.9567 0 0
lfoot -27.0022 30.6473 0
ltoes 3.75778 0 0
rfemur -26.357 -5.2094 13.8701
rtibia 74.6612 0 0
rfoot -6.34501 -18.3422 0
rtoes 13.6705 0 0
lowerback 16.0913 -0.948054 -6.59906
upperback -0.667979 -2.1362 3.9733
thorax -9.38233 -0.581187 8.65842
lowerneck 6.27973 -16.0266 -16.4681
upperneck -0.838366 -22.7777 20.7032
head 3.19255 -11.7323 7.87
lclavicle 1.27146e-14 1.08459e-15 0
lhumerus -4.56319 -59.5893 92.6503
lradius 84.2003 0 0
lwrist 30.1966 0 0
lhand -5.73007 42.5276 0
lfingers 7.12502 0 0
lthumb 20.0898 71.4822 0
rclavicle 1.27146e-14 1.08459e-15 0
rhumerus 62.2906 26.9336 -23.8143
rradius 103.92 0 0
rwrist -27.3422 0 0
rhand 5.28356 -19.0972 0
rfingers 7.12502 0 0
rthumb 30.5882 -45.9971 0
516
root -4.89167 14.748 -41.6382 358.356 20.8929 351.398
lfemur -45.3347 26.1102 -27.1653
ltibia 69.638 0 0
lfoot -26.8306 30.4794 0
ltoes 2.96701 0 0
rfemur -27.0492 -5.5923 13.6942
rtibia 74.3842 0 0
rfoot -6.27838 -17.6016 0
rtoes 13.4086 0 0
lowerback 16.1076 -0.865572 -6.62851
upperback -0.637156 -2.0411 3.89694
thorax -9.37479 -0.538016 8.56744
lowerneck 6.10564 -15.9188 -16.3832
upperneck -0.64736 -22.6114 20.4547
head 3.21454 -11.6403 7.78607
lclavicle 1.30993e-14 9.64926e-16 0
lhumerus -6.24169 -58.5478 92.8426
lradius 84.7016 0 0
lwrist 31.2413 0 0
lhand -5.88738 42.7247 0
lfingers 7.12502 0 0
lthumb 19.9384 71.6928 0
rclavicle 1.30993e-14 9.64926e-16 0
rhumerus 61.0291 26.2823 -24.6003
rradius 102.487 0 0
rwrist -26.8927 0 0
rhand 4.59378 -19.3008 0
rfingers 7.12502 0 0
rthumb 29.9262 -46.2747 0
517
root -4.97625 14.7334 -41.6725 356.984 19.1301 350.855
lfemur -44.0172 25.4488 -26.4861
ltibia 69.2782 0 0
lfoot -26.6414 30.2951 0
ltoes 2.10379 0 0
rfemur -27.8028 -6.0236 13.5046
rtibia 74.0902 0 0
rfoot -6.21016 -16.7908 0
rtoes 13.1342 0 0
lowerback 16.1269 -0.775556 -6.66227
upperback -0.603246 -1.93791 3.81241
thorax -9.36697 -0.49118 8.46793
lowerneck 5.91157 -15.7996 -16.2915
upperneck -0.432044 -22.4279 20.1803
head 3.24077 -11.5388 7.69337
lclavicle 1.34814e-14 8.32885e-16 0
lhumerus -8.08338 -57.3901 93.0499
lradius 85.251 0 0
lwrist 32.4057 0 0
lhand -6.06351 42.9473 0
lfingers 7.12502 0 0
lthumb 19.769 71.9304 0
rclavicle 1.34814e-14 8.32885e-16 0
rhumerus 59.6334 25.5728 -25.4701
rradius 100.915 0 0
rwrist -26.3772 0 0
rhand 3.82581 -19.5062 0
rfingers 7.12502 0 0
rthumb 29.1892 -46.5616 0
518
root -5.06082 14.7188 -41.7067 355.62 17.0999 350.415
lfemur -42.5749 24.7474 -25.745
ltibia 68.8745 0 0
lfoot -26.4335 30.0935 0
ltoes 1.16488 0 0
rfemur -28.6202 -6.50681 13.3008
rtibia 73.7794 0 0
rfoot -6.14073 -15.9064 0
rtoes 12.8478 0 0
lowerback 16.1493 -0.677677 -6.70071
upperback -0.566084 -1.82634 3.71925
thorax -9.35891 -0.440547 8.35947
lowerneck 5.69622 -15.6684 -16.1927
upperneck -0.190647 -22.2261 19.8786
head 3.27167 -11.4272 7.59139
lclavicle 1.38569e-14 6.87779e-16 0
lhumerus -10.0964 -56.1089 93.2725
lradius 85.851 0 0
lwrist 33.6975 0 0
lhand -6.25974 43.1973 0
lfingers 7.12502 0 0
lthumb 19.5801 72.1971 0
rclavicle 1.38569e-14 6.87779e-16 0
rhumerus 58.0958 24.8027 -26.4287
rradius 99.1972 0 0
rwrist -25.7904 0 0
rhand 2.97466 -19.7117 0
rfingers 7.12502 0 0
rthumb 28.3723 -46.8564 0
519
root -5.1454 14.7042 -41.7409 354.276 14.7803 350.096
lfemur -41.0018 24.0061 -24.9391
ltibia 68.4238 0 0
lfoot -26.2061 29.8738 0
ltoes 0.147091 0 0
rfemur -29.504 -7.04544 13.0825
rtibia 73.452 0 0
rfoot -6.07048 -14.9451 0
rtoes 12.5501 0 0
lowerback 16.1751 -0.571602 -6.74418
upperback -0.525507 -1.70609 3.61696
thorax -9.35064 -0.385984 8.24167
lowerneck 5.45831 -15.5244 -16.0868
upperneck 0.078604 -22.0051 19.548
head 3.30764 -11.305 7.47965
lclavicle 1.42219e-14 5.28915e-16 0
lhumerus -12.2891 -54.6969 93.5108
lradius 86.5039 0 0
lwrist 35.1244 0 0
lhand -6.47736 43.4764 0
lfingers 7.12502 0 0
lthumb 19.3707 72.4948 0
rclavicle 1.42219e-14 5.28915e-16 0
rhumerus 56.4085 23.9694 -27.4809
rradius 97.3269 0 0
rwrist -25.1267 0 0
rhand 2.03532 -19.9156 0
rfingers 7.12502 0 0
rthumb 27.4706 -47.158 0
520
root -5.22997 14.6897 -41.7751 352.962 12.1498 349.915
lfemur -39.2915 23.2247 -24.0655
ltibia 67.923 0 0
lfoot -25.9581 29.6352 0
ltoes -0.952807 0 0
rfemur -30.4566 -7.64298 12.8492
rtibia 73.108 0 0
rfoot -5.99981 -13.9036 0
rtoes 12.2418 0 0
lowerback 16.2047 -0.456999 -6.79304
upperback -0.481351 -1.57687 3.50507
thorax -9.34219 -0.327358 8.11413
lowerneck 5.19652 -15.367 -15.9734
upperneck 0.37748 -21.7638 19.1872
head 3.34912 -11.1716 7.35765
lclavicle 1.45723e-14 3.55601e-16 0
lhumerus -14.6695 -53.1468 93.7652
lradius 87.2121 0 0
lwrist 36.6943 0 0
lhand -6.71765 43.7867 0
lfingers 7.12502 0 0
lthumb 19.1394 72.8255 0
rclavicle 1.45723e-14 3.55601e-16 0
rhumerus 54.5635 23.0706 -28.6317
rradius 95.2968 0 0
rwrist -24.3806 0 0
rhand 1.00281 -20.1164 0
rfingers 7.12502 0 0
rthumb 26.4795 -47.4652 0
521
root -5.31454 14.6751 -41.8093 351.692 9.18648 349.892
lfemur -37.4381 22.4032 -23.1213
ltibia 67.3692 0 0
lfoot -25.6885 29.3768 0
ltoes -2.13802 0 0
rfemur -31.4806 -8.30294 12.6006
rtibia 72.7475 0 0
rfoot -5.92909 -12.7784 0
rtoes 11.9233 0 0
lowerback 16.2382 -0.333538 -6.84765
upperback -0.433452 -1.43838 3.38309
thorax -9.33359 -0.264536 7.97646
lowerneck 4.90958 -15.1956 -15.8523
upperneck 0.707751 -21.5014 18.7945
head 3.3965 -11.0266 7.22487
lclavicle 1.49042e-14 1.67145e-16 0
lhumerus -17.2459 -51.4514 94.0362
lradius 87.978 0 0
lwrist 38.4149 0 0
lhand -6.98189 44.13 0
lfingers 7.12502 0 0
lthumb 18.8851 73.1911 0
rclavicle 1.49042e-14 1.67145e-16 0
rhumerus 52.5531 22.1037 -29.886
rradius 93.1002 0 0
rwrist -23.5469 0 0
rhand -0.12787 -20.3124 0
rfingers 7.12502 0 0
rthumb 25.394 -47.7766 0
522
root -5.39912 14.6605 -41.8436 350.477 5.86861 350.044
lfemur -35.4352 21.5417 -22.1036
ltibia 66.7593 0 0
lfoot -25.3963 29.0977 0
ltoes -3.41177 0 0
rfemur -32.5784 -9.02883 12.3364
rtibia 72.3707 0 0
rfoot -5.85873 -11.5663 0
rtoes 11.5954 0 0
lowerback 16.2759 -0.200885 -6.90835
upperback -0.381647 -1.29033 3.25055
thorax -9.32486 -0.197384 7.82824
lowerneck 4.59618 -15.0094 -15.7234
upperneck 1.07119 -21.2167 18.3687
head 3.45022 -10.8693 7.08084
lclavicle 1.52137e-14 -3.7146e-17 0
lhumerus -20.0265 -49.6034 94.324
lradius 88.8039 0 0
lwrist 40.2939 0 0
lhand -7.27136 44.5081 0
lfingers 7.12502 0 0
lthumb 18.6065 73.5937 0
rclavicle 1.52137e-14 -3.7146e-17 0
rhumerus 50.3694 21.0664 -31.2487
rradius 90.7301 0 0
rwrist -22.6199 0 0
rhand -1.36171 -20.5018 0
rfingers 7.12502 0 0
rthumb 24.2094 -48.0911 0
523
root -5.48369 14.6459 -41.8778 349.33 2.17442 350.389
lfemur -33.2769 20.64 -21.0097
ltibia 66.0903 0 0
lfoot -25.0807 28.7973 0
ltoes -4.77727 0 0
rfemur -33.7526 -9.82414 12.0561
rtibia 71.9777 0 0
rfoot -5.7891 -10.2638 0
rtoes 11.2586 0 0
lowerback 16.3182 -0.0587113 -6.97552
upperback -0.325771 -1.13243 3.10697
thorax -9.31605 -0.125771 7.66908
lowerneck 4.25502 -14.8079 -15.5865
upperneck 1.46957 -20.9089 17.9082
head 3.51068 -10.6993 6.92504
lclavicle 1.54967e-14 -2.57963e-16 0
lhumerus -23.0194 -47.5955 94.6291
lradius 89.6922 0 0
lwrist 42.3391 0 0
lhand -7.58736 44.923 0
lfingers 7.12502 0 0
lthumb 18.3024 74.0353 0
rclavicle 1.54967e-14 -2.57963e-16 0
rhumerus 48.0046 19.9563 -32.7247
rradius 88.1796 0 0
rwrist -21.5942 0 0
rhand -2.70372 -20.6832 0
rfingers 7.12502 0 0
rthumb 22.9209 -48.4073 0
